HIERARCHY
ROOT Hips
{
	OFFSET 0.00000 0.00000 0.00000
	CHANNELS 6 Xposition Yposition Zposition Zrotation Yrotation Xrotation 
	JOINT LHipJoint
	{
		OFFSET 0 0 0
		CHANNELS 3 Zrotation Yrotation Xrotation
		JOINT LeftUpLeg
		{
			OFFSET 1.30186 -1.90722 0.65024
			CHANNELS 3 Zrotation Yrotation Xrotation
			JOINT LeftLeg
			{
				OFFSET 2.56413 -7.04489 0.00000
				CHANNELS 3 Zrotation Yrotation Xrotation
				JOINT LeftFoot
				{
					OFFSET 2.79321 -7.67428 0.00000
					CHANNELS 3 Zrotation Yrotation Xrotation
					JOINT LeftToeBase
					{
						OFFSET 0.15723 -0.43198 2.08537
						CHANNELS 3 Zrotation Yrotation Xrotation
						End Site
						{
							OFFSET 0.00000 -0.00000 1.07411
						}
					}
				}
			}
		}
	}
	JOINT RHipJoint
	{
		OFFSET 0 0 0
		CHANNELS 3 Zrotation Yrotation Xrotation
		JOINT RightUpLeg
		{
			OFFSET -1.28627 -1.90723 0.65024
			CHANNELS 3 Zrotation Yrotation Xrotation
			JOINT RightLeg
			{
				OFFSET -2.56567 -7.04913 0.00000
				CHANNELS 3 Zrotation Yrotation Xrotation
				JOINT RightFoot
				{
					OFFSET -2.75597 -7.57198 0.00000
					CHANNELS 3 Zrotation Yrotation Xrotation
					JOINT RightToeBase
					{
						OFFSET -0.17500 -0.48081 2.22901
						CHANNELS 3 Zrotation Yrotation Xrotation
						End Site
						{
							OFFSET -0.00000 -0.00000 1.14762
						}
					}
				}
			}
		}
	}
	JOINT LowerBack
	{
		OFFSET 0 0 0
		CHANNELS 3 Zrotation Yrotation Xrotation
		JOINT Spine
		{
			OFFSET -0.04522 2.07467 -0.16566
			CHANNELS 3 Zrotation Yrotation Xrotation
			JOINT Spine1
			{
				OFFSET -0.01178 2.08825 -0.05393
				CHANNELS 3 Zrotation Yrotation Xrotation
				JOINT Neck
				{
					OFFSET 0 0 0
					CHANNELS 3 Zrotation Yrotation Xrotation
					JOINT Neck1
					{
						OFFSET -0.05182 1.80489 0.16014
						CHANNELS 3 Zrotation Yrotation Xrotation
						JOINT Head
						{
							OFFSET 0.14739 1.78840 -0.33342
							CHANNELS 3 Zrotation Yrotation Xrotation
							End Site
							{
								OFFSET 0.04364 1.83899 -0.13460
							}
						}
					}
				}
				JOINT LeftShoulder
				{
					OFFSET 0 0 0
					CHANNELS 3 Zrotation Yrotation Xrotation
					JOINT LeftArm
					{
						OFFSET 3.01264 1.29090 -0.06579
						CHANNELS 3 Zrotation Yrotation Xrotation
						JOINT LeftForeArm
						{
							OFFSET 5.55680 -0.00000 0.00000
							CHANNELS 3 Zrotation Yrotation Xrotation
							JOINT LeftHand
							{
								OFFSET 3.63979 -0.00000 -0.00000
								CHANNELS 3 Zrotation Yrotation Xrotation
								JOINT LeftFingerBase
								{
									OFFSET 0 0 0
									CHANNELS 3 Zrotation Yrotation Xrotation
									JOINT LeftHandIndex1
									{
										OFFSET 0.56942 -0.00000 -0.00000
										CHANNELS 3 Zrotation Yrotation Xrotation
										End Site
										{
											OFFSET 0.45908 -0.00000 -0.00000
										}
									}
								}
								JOINT LThumb
								{
									OFFSET 0 0 0
									CHANNELS 3 Zrotation Yrotation Xrotation
									End Site
									{
										OFFSET 0.46609 -0.00000 0.46609
									}
								}
							}
						}
					}
				}
				JOINT RightShoulder
				{
					OFFSET 0 0 0
					CHANNELS 3 Zrotation Yrotation Xrotation
					JOINT RightArm
					{
						OFFSET -3.15796 1.37283 -0.36748
						CHANNELS 3 Zrotation Yrotation Xrotation
						JOINT RightForeArm
						{
							OFFSET -5.34339 -0.00000 0.00000
							CHANNELS 3 Zrotation Yrotation Xrotation
							JOINT RightHand
							{
								OFFSET -3.65101 -0.00000 -0.00000
								CHANNELS 3 Zrotation Yrotation Xrotation
								JOINT RightFingerBase
								{
									OFFSET 0 0 0
									CHANNELS 3 Zrotation Yrotation Xrotation
									JOINT RightHandIndex1
									{
										OFFSET -0.69425 -0.00000 -0.00000
										CHANNELS 3 Zrotation Yrotation Xrotation
										End Site
										{
											OFFSET -0.55972 -0.00000 -0.00000
										}
									}
								}
								JOINT RThumb
								{
									OFFSET 0 0 0
									CHANNELS 3 Zrotation Yrotation Xrotation
									End Site
									{
										OFFSET -0.56827 -0.00000 0.56827
									}
								}
							}
						}
					}
				}
			}
		}
	}
}
MOTION
Frames: 6
Frame Time: .0083333
16.2447 15.0820 -11.2894 51.2469 -69.4183 -404.9670 0.0000 0.0000 0.0000 -10.9895 -21.3763 -35.6268 10.8964 17.8840 62.4447 1.5847 -18.6726 -24.4021 4.4359 -12.7189 -38.3250 0.0000 0.0000 0.0000 11.3499 6.2510 -31.2211 -24.7222 -19.4567 103.9280 -0.6713 2.6184 -14.8076 -0.1491 -2.4887 6.8582 -11.9894 5.8961 19.4713 -5.9379 4.5350 6.2295 -0.7292 2.0126 -4.4897 -17.9588 -17.8915 1.3727 32.4962 -24.1971 -10.2286 11.1399 -12.7762 3.5261 0.0000 0.0000 0.0000 -50.5492 18.5965 -25.8081 9.0221 -15.1956 -1.2059 -0.0000 -0.0000 7.5766 25.4960 24.6091 11.2322 -7.1250 0.0000 -0.0000 -4.4035 56.8310 -1.2785 0.0000 0.0000 0.0000 48.0565 6.5373 5.4571 -33.6365 43.8136 -13.8608 0.0000 -0.0000 -27.6417 -21.2414 25.0909 -9.3601 7.1250 -0.0000 -0.0000 5.0627 -3.3962 4.7728
16.1932 15.0617 -11.2247 53.5908 -70.6716 -407.4810 0.0000 0.0000 0.0000 -10.8109 -20.8483 -35.1805 11.1211 17.9939 63.1744 1.8208 -18.1327 -25.6285 4.2721 -12.5140 -37.5754 0.0000 0.0000 0.0000 11.2967 6.3361 -33.4491 -25.6537 -19.2157 106.7408 -0.7131 2.2995 -15.3371 -0.1780 -2.7178 7.4940 -11.8211 5.9306 19.5375 -5.9547 4.5863 6.2226 -0.8567 2.0341 -4.5243 -17.8380 -17.7165 1.0373 31.9700 -23.9507 -9.8530 10.9686 -12.5972 3.5188 -0.0000 0.0000 0.0000 -50.7164 17.3181 -24.6186 9.0621 -15.2593 -1.2164 -0.0000 -0.0000 7.7243 26.3404 24.8831 11.7679 -7.1250 0.0000 -0.0000 -3.5788 57.3084 -1.0799 -0.0000 0.0000 0.0000 49.7009 5.5076 5.2944 -34.3047 44.3092 -14.3255 0.0000 -0.0000 -28.0814 -21.5559 25.3951 -9.6155 7.1250 -0.0000 -0.0000 4.9039 -3.0246 4.6556
16.1426 15.0431 -11.1608 56.2887 -71.7244 -410.2070 0.0000 0.0000 0.0000 -10.7714 -20.3945 -34.8422 11.3093 18.0831 63.7820 2.0582 -17.5397 -26.8344 4.2896 -12.5361 -37.6559 0.0000 0.0000 0.0000 10.9705 6.2702 -35.9316 -26.5425 -18.9412 109.4596 -0.7372 1.0758 -15.8921 -0.1737 -2.6848 7.4025 -11.7240 5.8618 19.4647 -5.9794 4.5153 6.1904 -0.9129 1.9967 -4.5097 -17.9879 -17.4906 0.6427 31.5220 -23.6674 -9.3328 10.8557 -12.3832 3.6059 0.0000 0.0000 0.0000 -51.0214 16.0520 -24.0082 9.1526 -15.4032 -1.2403 -0.0000 -0.0000 9.1006 26.4519 24.5543 11.6815 -7.1250 0.0000 -0.0000 -3.3393 56.9836 -0.9813 0.0000 0.0000 0.0000 51.1679 4.6768 5.2091 -34.7002 44.5969 -14.6025 0.0000 -0.0000 -28.1940 -21.4564 25.7093 -9.6758 7.1250 -0.0000 -0.0000 4.9987 -2.7168 4.7746
16.0890 15.0302 -11.1032 58.9169 -72.7687 -412.8810 0.0000 0.0000 0.0000 -10.6433 -20.0550 -34.3732 11.4440 18.1456 64.2151 2.3213 -16.7081 -28.1239 4.5093 -12.8089 -38.6572 0.0000 0.0000 0.0000 10.7045 6.1394 -38.3787 -27.3866 -18.6381 112.0798 -0.7530 0.6547 -16.1882 -0.1025 -2.0643 5.6834 -11.5586 5.7389 19.3954 -5.9250 4.3944 6.1182 -0.9101 1.9401 -4.5396 -18.1902 -17.1494 0.5836 31.0480 -23.2129 -9.0206 10.8217 -12.1212 3.5406 0.0000 0.0000 0.0000 -51.2841 14.8347 -22.7078 9.2117 -15.4972 -1.2561 -0.0000 -0.0000 9.3666 26.5602 23.5407 11.2911 -7.1250 0.0000 -0.0000 -2.8831 55.9255 -0.7732 0.0000 0.0000 0.0000 52.5306 3.9080 5.2296 -34.9253 44.7587 -14.7607 0.0000 -0.0000 -27.9119 -21.2637 26.0099 -9.6845 7.1250 -0.0000 -0.0000 5.1483 -2.4407 4.9446
16.0379 15.0240 -11.0588 61.8285 -73.5884 -415.8390 0.0000 0.0000 0.0000 -10.6808 -19.8226 -33.7953 11.5016 18.1719 64.4001 2.5166 -15.8835 -29.0476 4.4797 -12.7728 -38.5239 0.0000 0.0000 0.0000 10.2635 5.7991 -40.9254 -28.2062 -18.3021 114.6661 -0.7741 0.8463 -16.3595 -0.0173 -0.8502 2.3367 -11.6242 5.6523 19.4557 -5.8186 4.2557 6.0581 -0.7320 1.8748 -4.6404 -18.3105 -16.8416 0.4439 30.4492 -22.7584 -8.8215 10.7287 -11.8574 3.4272 -0.0000 0.0000 0.0000 -51.7810 13.4325 -21.0593 9.3558 -15.7256 -1.2949 -0.0000 -0.0000 8.2770 27.0665 22.7496 11.1777 -7.1250 0.0000 -0.0000 -2.0984 55.1833 -0.5248 -0.0000 0.0000 0.0000 53.7032 3.0435 5.2844 -35.1066 44.8881 -14.8885 0.0000 -0.0000 -27.3274 -21.0200 26.3471 -9.6781 7.1250 -0.0000 -0.0000 5.3324 -2.1368 5.1525
15.9860 15.0324 -11.0246 65.7691 -73.7266 -419.9900 0.0000 0.0000 0.0000 -11.5966 -19.4284 -32.8838 11.4585 18.1522 64.2617 2.7016 -14.5823 -29.8712 4.6971 -13.0343 -39.4970 0.0000 0.0000 0.0000 8.9239 4.8842 -43.3761 -28.9941 -17.9380 117.1994 -0.7990 1.6973 -16.3992 -0.0000 0.0053 -0.0144 -12.1778 5.7016 19.7510 -5.9363 4.1275 6.1220 -0.5481 1.8001 -4.7385 -18.0264 -16.6647 -0.0539 29.7149 -22.4463 -8.5298 10.4663 -11.6413 3.3645 -0.0000 -0.0000 0.0000 -52.1830 11.9450 -18.9367 9.7128 -16.2891 -1.3933 -0.0000 -0.0000 6.3540 26.8529 22.2973 10.8738 -7.1250 0.0000 -0.0000 -2.1973 54.6517 -0.5212 -0.0000 -0.0000 0.0000 54.9411 2.0490 5.2194 -35.2533 44.9921 -14.9921 0.0000 -0.0000 -26.8923 -20.4916 26.6879 -9.5282 7.1250 -0.0000 -0.0000 5.6871 -1.8814 5.5248
